<svg width="42" height="42" viewBox="0 0 42 42" fill="none" xmlns="http://www.w3.org/2000/svg">
<path d="M39.375 34.125H38.0625V14.4375C38.0625 14.0894 37.9242 13.7556 37.6781 13.5094C37.4319 13.2633 37.0981 13.125 36.75 13.125H26.25C25.9019 13.125 25.5681 13.2633 25.3219 13.5094C25.0758 13.7556 24.9375 14.0894 24.9375 14.4375V21H17.0625V6.5625C17.0625 6.2144 16.9242 5.88056 16.6781 5.63442C16.4319 5.38828 16.0981 5.25 15.75 5.25H5.25C4.9019 5.25 4.56806 5.38828 4.32192 5.63442C4.07578 5.88056 3.9375 6.2144 3.9375 6.5625V34.125H2.625C2.2769 34.125 1.94306 34.2633 1.69692 34.5094C1.45078 34.7556 1.3125 35.0894 1.3125 35.4375C1.3125 35.7856 1.45078 36.1194 1.69692 36.3656C1.94306 36.6117 2.2769 36.75 2.625 36.75H39.375C39.7231 36.75 40.0569 36.6117 40.3031 36.3656C40.5492 36.1194 40.6875 35.7856 40.6875 35.4375C40.6875 35.0894 40.5492 34.7556 40.3031 34.5094C40.0569 34.2633 39.7231 34.125 39.375 34.125ZM27.5625 15.75H35.4375V34.125H27.5625V15.75ZM24.9375 23.625V34.125H17.0625V23.625H24.9375ZM6.5625 7.875H14.4375V34.125H6.5625V7.875ZM11.8125 11.8125V14.4375C11.8125 14.7856 11.6742 15.1194 11.4281 15.3656C11.1819 15.6117 10.8481 15.75 10.5 15.75C10.1519 15.75 9.81806 15.6117 9.57192 15.3656C9.32578 15.1194 9.1875 14.7856 9.1875 14.4375V11.8125C9.1875 11.4644 9.32578 11.1306 9.57192 10.8844C9.81806 10.6383 10.1519 10.5 10.5 10.5C10.8481 10.5 11.1819 10.6383 11.4281 10.8844C11.6742 11.1306 11.8125 11.4644 11.8125 11.8125ZM11.8125 19.6875V22.3125C11.8125 22.6606 11.6742 22.9944 11.4281 23.2406C11.1819 23.4867 10.8481 23.625 10.5 23.625C10.1519 23.625 9.81806 23.4867 9.57192 23.2406C9.32578 22.9944 9.1875 22.6606 9.1875 22.3125V19.6875C9.1875 19.3394 9.32578 19.0056 9.57192 18.7594C9.81806 18.5133 10.1519 18.375 10.5 18.375C10.8481 18.375 11.1819 18.5133 11.4281 18.7594C11.6742 19.0056 11.8125 19.3394 11.8125 19.6875ZM11.8125 27.5625V30.1875C11.8125 30.5356 11.6742 30.8694 11.4281 31.1156C11.1819 31.3617 10.8481 31.5 10.5 31.5C10.1519 31.5 9.81806 31.3617 9.57192 31.1156C9.32578 30.8694 9.1875 30.5356 9.1875 30.1875V27.5625C9.1875 27.2144 9.32578 26.8806 9.57192 26.6344C9.81806 26.3883 10.1519 26.25 10.5 26.25C10.8481 26.25 11.1819 26.3883 11.4281 26.6344C11.6742 26.8806 11.8125 27.2144 11.8125 27.5625ZM19.6875 30.1875V27.5625C19.6875 27.2144 19.8258 26.8806 20.0719 26.6344C20.3181 26.3883 20.6519 26.25 21 26.25C21.3481 26.25 21.6819 26.3883 21.9281 26.6344C22.1742 26.8806 22.3125 27.2144 22.3125 27.5625V30.1875C22.3125 30.5356 22.1742 30.8694 21.9281 31.1156C21.6819 31.3617 21.3481 31.5 21 31.5C20.6519 31.5 20.3181 31.3617 20.0719 31.1156C19.8258 30.8694 19.6875 30.5356 19.6875 30.1875ZM30.1875 30.1875V27.5625C30.1875 27.2144 30.3258 26.8806 30.5719 26.6344C30.8181 26.3883 31.1519 26.25 31.5 26.25C31.8481 26.25 32.1819 26.3883 32.4281 26.6344C32.6742 26.8806 32.8125 27.2144 32.8125 27.5625V30.1875C32.8125 30.5356 32.6742 30.8694 32.4281 31.1156C32.1819 31.3617 31.8481 31.5 31.5 31.5C31.1519 31.5 30.8181 31.3617 30.5719 31.1156C30.3258 30.8694 30.1875 30.5356 30.1875 30.1875ZM30.1875 22.3125V19.6875C30.1875 19.3394 30.3258 19.0056 30.5719 18.7594C30.8181 18.5133 31.1519 18.375 31.5 18.375C31.8481 18.375 32.1819 18.5133 32.4281 18.7594C32.6742 19.0056 32.8125 19.3394 32.8125 19.6875V22.3125C32.8125 22.6606 32.6742 22.9944 32.4281 23.2406C32.1819 23.4867 31.8481 23.625 31.5 23.625C31.1519 23.625 30.8181 23.4867 30.5719 23.2406C30.3258 22.9944 30.1875 22.6606 30.1875 22.3125Z" fill="#ED1C24"/>
</svg>
