<?xml version="1.0" encoding="UTF-8"?>
<svg width="24px" height="24px" viewBox="0 0 24 24" version="1.1" xmlns="http://www.w3.org/2000/svg">
    <g stroke="none" stroke-width="1" fill="none" fill-rule="evenodd">
        <path d="M12,2.163c3.204,0,3.584,0.012,4.85,0.07c3.252,0.148,4.771,1.691,4.919,4.919c0.058,1.265,0.069,1.645,0.069,4.849c0,3.205-0.012,3.584-0.069,4.849c-0.149,3.225-1.664,4.771-4.919,4.919c-1.266,0.058-1.644,0.07-4.85,0.07c-3.204,0-3.584-0.012-4.849-0.07c-3.26-0.149-4.771-1.699-4.919-4.92c-0.058-1.265-0.07-1.644-0.07-4.849c0-3.204,0.013-3.583,0.07-4.849C2.381,3.924,3.896,2.38,7.151,2.232C8.417,2.175,8.796,2.163,12,2.163z M12,0C8.741,0,8.333,0.014,7.053,0.072c-4.358,0.2-6.78,2.618-6.98,6.98C0.014,8.333,0,8.741,0,12s0.014,3.668,0.072,4.948c0.2,4.358,2.618,6.78,6.98,6.98C8.333,23.986,8.741,24,12,24s3.668-0.014,4.948-0.072c4.354-0.2,6.782-2.618,6.979-6.98C23.986,15.668,24,15.259,24,12s-0.014-3.667-0.072-4.947c-0.196-4.354-2.617-6.78-6.979-6.98C15.668,0.014,15.259,0,12,0z M12,5.838c-3.403,0-6.162,2.759-6.162,6.162c0,3.403,2.759,6.162,6.162,6.162c3.403,0,6.162-2.759,6.162-6.162C18.162,8.597,15.403,5.838,12,5.838z M12,16c-2.209,0-4-1.791-4-4c0-2.209,1.791-4,4-4s4,1.791,4,4C16,14.209,14.209,16,12,16z M18.406,4.155c-0.796,0-1.441,0.645-1.441,1.44c0,0.795,0.645,1.44,1.441,1.44c0.795,0,1.439-0.645,1.439-1.44C19.846,4.8,19.201,4.155,18.406,4.155z" fill="#FFFFFF" fill-rule="nonzero"></path>
    </g>
</svg>
