<svg width="42" height="42" viewBox="0 0 42 42" fill="none" xmlns="http://www.w3.org/2000/svg">
<path d="M13.44 2.51999C7.41722 2.51999 2.52002 7.41719 2.52002 13.44V28.56C2.52002 34.5828 7.41722 39.48 13.44 39.48H28.56C34.5828 39.48 39.48 34.5828 39.48 28.56V13.44C39.48 7.41719 34.5828 2.51999 28.56 2.51999H13.44ZM31.08 9.23999C32.004 9.23999 32.76 9.99599 32.76 10.92C32.76 11.844 32.004 12.6 31.08 12.6C30.156 12.6 29.4 11.844 29.4 10.92C29.4 9.99599 30.156 9.23999 31.08 9.23999ZM21 11.76C26.0988 11.76 30.24 15.9012 30.24 21C30.24 26.0988 26.0988 30.24 21 30.24C15.9012 30.24 11.76 26.0988 11.76 21C11.76 15.9012 15.9012 11.76 21 11.76ZM21 13.44C16.8336 13.44 13.44 16.8336 13.44 21C13.44 25.1664 16.8336 28.56 21 28.56C25.1664 28.56 28.56 25.1664 28.56 21C28.56 16.8336 25.1664 13.44 21 13.44Z" fill="#ED1C24"/>
</svg>
