<?xml version="1.0" encoding="UTF-8"?>
<svg width="100" height="24" viewBox="0 0 100 24" xmlns="http://www.w3.org/2000/svg">
  <path d="M15 4C8.925 4 4 8.925 4 15s4.925 11 11 11 11-4.925 11-11S21.075 4 15 4zm0 20c-4.97 0-9-4.03-9-9s4.03-9 9-9 9 4.03 9 9-4.03 9-9 9z" fill="#FFFFFF"/>
  <path d="M33 6h5.5c4.5 0 7.5 2.5 7.5 6.5s-3 6.5-7.5 6.5H33V6zm5.5 11c3 0 5-1.75 5-4.5S41.5 8 38.5 8H35v9h3.5z" fill="#FFFFFF"/>
  <path d="M50 6h3v13h-3V6z" fill="#FFFFFF"/>
  <path d="M65 6h3l-6 13h-2.5L53.5 6H57l4 9.5L65 6z" fill="#FFFFFF"/>
  <path d="M80 16v3h-10V6h10v3h-7v2h6v3h-6v2h7z" fill="#FFFFFF"/>
</svg>
