<?xml version="1.0" encoding="UTF-8"?>
<svg width="24px" height="24px" viewBox="0 0 24 24" version="1.1" xmlns="http://www.w3.org/2000/svg">
    <g stroke="none" stroke-width="1" fill="none" fill-rule="evenodd">
        <path d="M12.186 24h-.007c-3.073-.012-5.755-.791-7.971-2.312C1.93 19.926.686 17.531.686 14.694c0-1.98.478-3.879 1.376-5.48.888-1.579 2.168-2.968 3.804-4.128l.063-.044c.228-.158.538-.106.706.118.17.225.12.545-.108.712-.024.018-.046.037-.067.057-2.962 2.313-4.566 5.439-4.566 8.829 0 2.246.937 4.113 2.786 5.546 1.904 1.476 4.555 2.227 7.893 2.227h.005c3.338-.001 5.988-.752 7.893-2.227 1.85-1.433 2.786-3.3 2.786-5.546 0-3.39-1.604-6.516-4.566-8.829-.021-.02-.043-.039-.067-.057-.228-.167-.278-.487-.108-.712.169-.224.478-.276.706-.118l.063.044c1.636 1.16 2.916 2.549 3.804 4.128.898 1.601 1.376 3.5 1.376 5.48 0 2.837-1.244 5.232-3.601 6.932-2.216 1.521-4.898 2.3-7.971 2.312h-.007z" fill="#FFFFFF" fill-rule="nonzero"></path>
        <path d="M19.207 11.854c-.183-.433-.562-.754-1.045-.884-.482-.13-1.255-.151-2.097.43-1.258.868-2.359.891-3.231.694-.92-.208-1.534-.812-1.902-1.247-.06-.07-.12-.142-.18-.215.261-.195.49-.417.685-.662.362-.456.607-1.075.607-1.913 0-1.725-1.442-3.127-3.211-3.127S5.622 6.332 5.622 8.057c0 .838.245 1.457.607 1.913.195.245.424.467.685.662-.06.073-.12.145-.18.215-.368.435-.982 1.039-1.902 1.247-.872.197-1.973.174-3.231-.694-.842-.581-1.615-.56-2.097-.43-.483.13-.862.451-1.045.884-.183.433-.174 1.046.308 1.705.483.66 1.23 1.04 2.115 1.04.483 0 1.01-.102 1.582-.317 1.442-.542 2.638-.39 3.49.043.852.433 1.343 1.112 1.582 1.616.12.252.217.513.3.781.083.269.15.547.2.832.05.285.083.578.1.877.017.3.017.607 0 .92-.033.607-.15 1.248-.4 1.821-.251.574-.635 1.081-1.16 1.453-.526.372-1.193.607-2.015.607-1.01 0-1.74-.347-2.214-.78-.474-.433-.74-.953-.84-1.427-.1-.474-.084-.91.05-1.265.133-.355.35-.64.6-.867.251-.226.535-.394.818-.503.284-.108.552-.16.785-.167.234-.007.418.022.551.05.134.03.218.066.251.08.034.015.034.015.034.015.15.073.334.022.451-.108.117-.13.117-.325.017-.462 0 0-.017-.022-.05-.058-.034-.037-.1-.095-.2-.16-.101-.065-.235-.145-.418-.218-.184-.072-.418-.137-.702-.16-.284-.021-.618.008-.969.108-.35.101-.717.274-1.06.54-.342.268-.651.64-.852 1.126-.2.486-.25 1.097-.117 1.748.133.65.467 1.346 1.11 1.939.642.592 1.59 1.04 2.87 1.04 1.058 0 1.973-.308 2.698-.78.726-.47 1.26-1.124 1.616-1.87.358-.746.5-1.57.542-2.276.017-.354.017-.7 0-1.04-.017-.338-.059-.67-.117-.994-.059-.323-.142-.639-.242-.947-.1-.309-.217-.61-.367-.911-.334-.79-1.01-1.783-2.214-2.407-1.202-.624-2.754-.78-4.533-.094-.284.108-.576.16-.868.16-.59 0-1.06-.224-1.376-.624-.317-.4-.317-.78-.25-.953.066-.173.25-.26.4-.303.15-.043.334-.043.534.022.2.065.417.195.635.382.217.188.417.433.55.723.15.325.485.488.802.361.317-.123.485-.477.367-.813-.217-.477-.534-.867-.885-1.161-.35-.295-.734-.498-1.126-.607-.393-.108-.793-.13-1.16-.065-.367.065-.7.209-.968.433-.267.224-.467.52-.584.883-.117.364-.117.796.084 1.248.2.452.584.932 1.16 1.29.575.36 1.325.59 2.18.59.35 0 .71-.052 1.06-.16.1-.036.2-.072.3-.108 1.36-.506 2.38-.39 3.09.043.71.433 1.11 1.112 1.31 1.616.1.252.183.513.25.781.067.269.117.547.15.832.034.285.05.578.05.877 0 .3-.017.607-.05.92-.067.607-.217 1.248-.5 1.821-.284.574-.702 1.081-1.26 1.453-.56.372-1.26.607-2.115.607-1.06 0-1.824-.347-2.331-.78-.508-.433-.802-.953-.919-1.427-.117-.474-.1-.91.05-1.265.15-.355.384-.64.651-.867.267-.226.568-.394.869-.503.3-.108.584-.16.835-.167.25-.007.45.022.6.05.15.03.25.066.284.08.033.015.033.015.033.015.167.073.367.022.5-.108.134-.13.134-.325.017-.462 0 0-.017-.022-.067-.058-.05-.037-.117-.095-.234-.16-.117-.065-.267-.145-.467-.218-.2-.072-.45-.137-.752-.16-.3-.021-.651.008-1.026.108-.376.101-.769.274-1.127.54-.358.268-.685.64-.902 1.126-.217.486-.267 1.097-.117 1.748.15.65.5 1.346 1.177 1.939.676.592 1.674 1.04 3.007 1.04 1.11 0 2.064-.308 2.82-.78.76-.47 1.31-1.124 1.683-1.87.374-.746.518-1.57.551-2.276.017-.354.008-.7-.017-1.04-.025-.338-.075-.67-.142-.994-.067-.323-.15-.639-.25-.947-.1-.309-.217-.61-.35-.911-.317-.79-.952-1.783-2.098-2.407-1.143-.624-2.62-.78-4.315-.094 1.443-1.075 1.443-3.185 0-4.26 1.695.686 3.172.53 4.315-.094 1.146-.624 1.78-1.617 2.098-2.407.133-.301.25-.602.35-.911.1-.308.183-.624.25-.947.067-.324.117-.656.142-.994.025-.34.034-.686.017-1.04-.033-.706-.177-1.53-.551-2.276-.373-.746-.923-1.4-1.683-1.87-.756-.472-1.71-.78-2.82-.78-1.333 0-2.33.448-3.007 1.04-.677.593-1.027 1.29-1.177 1.94-.15.65-.1 1.261.117 1.747.217.486.544.858.902 1.126.358.266.751.439 1.127.54.375.1.726.129 1.026.108.302-.023.552-.088.752-.16.2-.073.35-.153.467-.218.117-.065.184-.123.234-.16.05-.036.067-.058.067-.058.117-.137.117-.332-.017-.462-.133-.13-.333-.181-.5-.108 0 0 0 0-.033.015-.034.014-.134.05-.284.08-.15.028-.35.057-.6.05-.251-.007-.535-.059-.835-.167-.301-.109-.602-.277-.869-.503-.267-.227-.501-.512-.651-.867-.15-.355-.167-.791-.05-1.265.117-.474.411-.994.919-1.427.507-.433 1.27-.78 2.331-.78.855 0 1.555.235 2.115.607.558.372.976.879 1.26 1.453.283.573.433 1.214.5 1.821.033.313.05.62.05.92 0 .299-.016.592-.05.877-.033.285-.083.563-.15.832-.067.268-.15.529-.25.781-.2.504-.6 1.183-1.31 1.616-.71.433-1.73.549-3.09.043-.1-.036-.2-.072-.3-.108-.35-.108-.71-.16-1.06-.16-.855 0-1.605.23-2.18.59-.576.358-.96.838-1.16 1.29-.201.452-.201.884-.084 1.248.117.363.317.659.584.883.268.224.601.368.968.433.367.065.767.043 1.16-.065.392-.109.776-.312 1.126-.607.351-.294.668-.684.885-1.161.118-.336-.05-.69-.367-.813-.317-.127-.652.036-.802.361-.133.29-.333.535-.55.723-.218.187-.435.317-.635.382-.2.065-.384.065-.534.022-.15-.043-.334-.13-.4-.303-.067-.173-.067-.553.25-.953.316-.4.786-.624 1.376-.624.292 0 .584.052.868.16 1.779.686 3.33.53 4.533-.094 1.204-.624 1.88-1.617 2.214-2.407.15-.301.267-.602.367-.911.1-.308.183-.624.242-.947.058-.324.1-.656.117-.994.017-.34.017-.686 0-1.04-.042-.706-.184-1.53-.542-2.276-.356-.746-.89-1.4-1.616-1.87-.725-.472-1.64-.78-2.698-.78-1.28 0-2.228.448-2.87 1.04-.643.593-.977 1.29-1.11 1.94-.133.65-.083 1.261.117 1.747.201.486.51.858.852 1.126.343.266.71.439 1.06.54.351.1.685.129.969.108.284-.023.518-.088.702-.16.183-.073.317-.153.418-.218.1-.065.166-.123.2-.16.033-.036.05-.058.05-.058.1-.137.1-.332-.017-.462-.117-.13-.301-.181-.451-.108 0 0 0 0-.034.015-.033.014-.117.05-.251.08-.133.028-.317.057-.551.05-.233-.007-.501-.059-.785-.167-.283-.109-.567-.277-.818-.503-.25-.227-.467-.512-.6-.867-.134-.355-.15-.791-.05-1.265.1-.474.366-.994.84-1.427.474-.433 1.204-.78 2.214-.78.822 0 1.489.235 2.015.607.525.372.909.879 1.16 1.453.25.573.367 1.214.4 1.821.017.313.017.62 0 .92-.017.299-.05.592-.1.877-.05.285-.117.563-.2.832-.083.268-.18.529-.3.781-.239.504-.73 1.183-1.582 1.616-.852.433-2.048.585-3.49.043-.572-.215-1.099-.317-1.582-.317-.885 0-1.632.38-2.115 1.04-.482.659-.491 1.272-.308 1.705z" fill="#FFFFFF" fill-rule="nonzero"></path>
    </g>
</svg>
