<svg width="42" height="42" viewBox="0 0 42 42" fill="none" xmlns="http://www.w3.org/2000/svg">
<path d="M38.6401 7.56V34.44C38.6401 36.7559 36.756 38.64 34.4401 38.64H7.56011C5.24423 38.64 3.36011 36.7559 3.36011 34.44V7.56C3.36011 5.24412 5.24423 3.36 7.56011 3.36H34.4401C36.756 3.36 38.6401 5.24412 38.6401 7.56ZM28.1771 30.1669C30.4543 27.8922 30.3905 25.0488 29.6437 23.3041C29.1901 22.2499 28.377 21.3469 27.2934 20.6934L27.1061 20.5775C26.8289 20.4028 26.5945 20.2625 26.2274 20.1222C26.2207 19.8887 26.2064 19.6552 26.1787 19.4443C25.6831 15.6131 23.1959 14.7949 21.1908 14.7823C19.3814 14.7823 17.8761 15.5551 16.9538 16.9596L18.3583 17.8819C18.9765 16.9403 19.9299 16.4632 21.1857 16.4632C23.174 16.4758 24.2307 17.4905 24.5121 19.656C23.5537 19.462 22.4743 19.3922 21.3143 19.4603C18.0181 19.6501 16.643 21.6367 16.743 23.5225C16.8555 25.6108 18.6565 27.069 21.1244 27.069C21.2336 27.069 21.342 27.0665 21.447 27.0598C23.3765 26.9539 25.7352 25.9762 26.1594 21.9668C26.177 21.9778 26.1938 21.9887 26.2115 21.9996L26.424 22.1315C27.2069 22.6036 27.7856 23.2378 28.0989 23.9669C28.6391 25.2277 28.6718 27.2966 26.9885 28.9783C25.5336 30.4315 23.7864 31.0607 21.1622 31.08C18.2474 31.0582 16.0391 30.1182 14.6001 28.287C13.2595 26.5835 12.5673 24.1265 12.5413 20.9983C12.5673 17.8668 13.2595 15.4157 14.6001 13.713C16.0399 11.881 18.2533 10.9418 21.1639 10.92C24.0972 10.9418 26.3425 11.8852 27.8369 13.7239C28.5626 14.6168 29.1179 15.7475 29.4875 17.0822L31.107 16.6354C30.6752 15.0746 30.0141 13.7382 29.1405 12.6638C27.3144 10.4177 24.6356 9.26604 21.1639 9.24C17.7031 9.26604 15.0504 10.421 13.2788 12.6748C11.7038 14.6765 10.8899 17.4728 10.8605 20.9992C10.8899 24.5213 11.7038 27.3235 13.2788 29.3261C15.0504 31.579 17.6989 32.7348 21.1622 32.76C24.24 32.7373 26.4038 31.9376 28.1771 30.1669ZM24.3542 21.3402C24.413 21.3536 24.4701 21.3662 24.5239 21.3788C24.5197 21.4444 24.5155 21.5015 24.5113 21.5452C24.2475 24.8447 22.5835 25.3159 21.3521 25.3831C21.2756 25.3873 21.2 25.3898 21.1244 25.3898C19.5696 25.3898 18.4835 24.6036 18.4213 23.4335C18.3667 22.4104 19.1235 21.2696 21.4125 21.1386C21.662 21.1235 21.9073 21.1159 22.1475 21.1159C22.9531 21.1151 23.6957 21.1907 24.3542 21.3402Z" fill="#ED1C24"/>
</svg>
