<svg width="42" height="42" viewBox="0 0 42 42" fill="none" xmlns="http://www.w3.org/2000/svg">
<path d="M9.24011 3.35999C5.99267 3.35999 3.36011 5.99255 3.36011 9.23998V32.76C3.36011 36.0074 5.99267 38.64 9.24011 38.64H32.7601C36.0075 38.64 38.6401 36.0074 38.6401 32.76V9.23998C38.6401 5.99255 36.0075 3.35999 32.7601 3.35999H9.24011ZM10.9923 10.92H17.6598L22.3946 17.6482L28.1401 10.92H30.2401L23.3429 18.9951L31.8479 31.08H25.1821L19.6876 23.2739L13.0201 31.08H10.9201L18.7393 21.9269L10.9923 10.92ZM14.2079 12.6L26.0582 29.4H28.6323L16.7821 12.6H14.2079Z" fill="#ED1C24"/>
</svg>
